<svg width="321" height="88" viewBox="0 0 321 88" fill="none" xmlns="http://www.w3.org/2000/svg">
<g clip-path="url(#clip0_11_76)">
<path d="M44.1384 82.3278C39.3096 83.1879 34.3959 83.4458 29.3129 84.1327L13.809 38.0705V86.1096C8.98016 86.625 4.57488 87.3125 0 88V0H12.8776L30.4988 49.9304V0H44.1384V82.3278ZM70.825 32.2266C76.0779 32.2266 84.1261 31.9687 88.9549 31.9687V45.7184C82.9396 45.7184 75.9083 45.7184 70.825 45.9763V66.4298C78.7889 65.9143 86.7524 65.2262 94.8003 64.9683V78.2019L57.2697 81.2104V0H94.8003V13.75H70.825V32.2266ZM145.208 13.7503H131.145V77.0002C126.57 77.0002 121.995 77.0002 117.59 77.1716V13.7503H103.527V0H145.209L145.208 13.7503ZM167.235 31.2815H185.788V45.0312H167.235V76.2269H153.933V0H191.803V13.75H167.235V31.2815ZM213.83 64.1953C221.54 64.3667 229.333 64.9693 236.874 65.3982V78.9765C224.759 78.2025 212.644 77.4302 200.275 77.1716V0H213.83V64.1953ZM248.311 79.9219C252.631 80.1801 257.206 80.438 261.612 80.9528V0H248.311V79.9219ZM321 0L303.802 41.8517L321 88C315.916 87.3125 310.833 86.3671 305.75 85.5076L296.008 60.0707L286.097 83.4458C281.182 82.5857 276.438 82.3278 271.525 81.6403L288.977 41.3356L273.219 0H287.79L296.685 23.1172L306.174 0H321V0Z" fill="#E50914"/>
</g>
<defs>
<clipPath id="clip0_11_76">
<rect width="321" height="88" fill="white"/>
</clipPath>
</defs>
</svg>
